<svg width="38" height="58" viewBox="0 0 38 58" fill="none" xmlns="http://www.w3.org/2000/svg">
<path d="M31.4615 1H6.53846C3.47965 1 1 3.47965 1 6.53846V50.8462C1 53.905 3.47965 56.3846 6.53846 56.3846H31.4615C34.5203 56.3846 37 53.905 37 50.8462V6.53846C37 3.47965 34.5203 1 31.4615 1Z" stroke="#4A4A4A" stroke-width="2"/>
<path d="M19 52.2307C22.0588 52.2307 24.5385 49.7511 24.5385 46.6923C24.5385 43.6335 22.0588 41.1538 19 41.1538C15.9412 41.1538 13.4615 43.6335 13.4615 46.6923C13.4615 49.7511 15.9412 52.2307 19 52.2307Z" fill="white"/>
<path d="M19 50.8463C21.2941 50.8463 23.1538 48.9865 23.1538 46.6924C23.1538 44.3983 21.2941 42.5386 19 42.5386C16.7059 42.5386 14.8461 44.3983 14.8461 46.6924C14.8461 48.9865 16.7059 50.8463 19 50.8463Z" stroke="#4A4A4A"/>
</svg>
