<svg width="45" height="45" viewBox="0 0 45 45" fill="none" xmlns="http://www.w3.org/2000/svg">
<g clip-path="url(#clip0_97_227)">
<path d="M16.875 14.9999H22.5V21.5624C22.5001 21.755 22.5595 21.9429 22.6701 22.1005C22.7808 22.2582 22.9373 22.3779 23.1184 22.4435C23.2995 22.5091 23.4964 22.5172 23.6823 22.4669C23.8682 22.4166 24.0341 22.3103 24.1575 22.1624L33.5325 10.9124C33.6481 10.776 33.7221 10.6093 33.7458 10.4321C33.7694 10.2548 33.7417 10.0745 33.6658 9.91261C33.59 9.75069 33.4693 9.61394 33.318 9.51862C33.1668 9.4233 32.9913 9.37341 32.8125 9.37489H26.25V2.81239C26.2497 2.61553 26.1876 2.42372 26.0726 2.26395C25.9576 2.10419 25.7954 1.98451 25.6088 1.92177C25.4218 1.86172 25.2209 1.86103 25.0335 1.91978C24.8462 1.97854 24.6817 2.09385 24.5625 2.24989L16.125 13.4999C16.0205 13.6392 15.9569 13.8048 15.9413 13.9782C15.9257 14.1516 15.9586 14.3259 16.0365 14.4817C16.1143 14.6374 16.234 14.7683 16.3821 14.8599C16.5302 14.9514 16.7009 14.9999 16.875 14.9999Z" fill="#555555"/>
<path d="M44.0625 11.25H36.5625C36.3139 11.25 36.0754 11.3488 35.8996 11.5246C35.7238 11.7004 35.625 11.9389 35.625 12.1875V21.5625C35.625 21.8111 35.7238 22.0496 35.8996 22.2254C36.0754 22.4012 36.3139 22.5 36.5625 22.5H39.375V27.1875C39.375 32.9231 36.3169 37.9481 31.7569 40.755C33.0509 38.9966 33.7492 36.8707 33.75 34.6875C33.75 29.0025 29.1244 24.375 23.4375 24.375C17.7506 24.375 13.125 29.0025 13.125 34.6875C13.125 36.9562 13.8712 39.0506 15.1181 40.755C10.5562 37.9481 7.5 32.9231 7.5 27.1875V22.5H12.1875C12.4361 22.5 12.6746 22.4012 12.8504 22.2254C13.0262 22.0496 13.125 21.8111 13.125 21.5625V8.4375C13.125 8.18886 13.0262 7.9504 12.8504 7.77459C12.6746 7.59877 12.4361 7.5 12.1875 7.5H0.9375C0.68886 7.5 0.450403 7.59877 0.274587 7.77459C0.0987721 7.9504 0 8.18886 0 8.4375L0 21.5625C0 21.8111 0.0987721 22.0496 0.274587 22.2254C0.450403 22.4012 0.68886 22.5 0.9375 22.5H5.625V27.1875C5.625 37.0931 13.7437 45 23.4375 45C33.1294 45 41.25 37.0969 41.25 27.1875V22.5H44.0625C44.3111 22.5 44.5496 22.4012 44.7254 22.2254C44.9012 22.0496 45 21.8111 45 21.5625V12.1875C45 11.9389 44.9012 11.7004 44.7254 11.5246C44.5496 11.3488 44.3111 11.25 44.0625 11.25ZM15 34.6875C15 30.0356 18.7856 26.25 23.4375 26.25C28.0894 26.25 31.875 30.0356 31.875 34.6875C31.875 39.3394 28.0894 43.125 23.4375 43.125C18.7856 43.125 15 39.3394 15 34.6875ZM11.25 0.9375C11.25 0.68886 11.1512 0.450403 10.9754 0.274587C10.7996 0.0987721 10.5611 0 10.3125 0L2.8125 0C2.56386 0 2.3254 0.0987721 2.14959 0.274587C1.97377 0.450403 1.875 0.68886 1.875 0.9375V5.625H11.25V0.9375ZM43.125 6.5625C43.125 6.31386 43.0262 6.0754 42.8504 5.89959C42.6746 5.72377 42.4361 5.625 42.1875 5.625H38.4375C38.1889 5.625 37.9504 5.72377 37.7746 5.89959C37.5988 6.0754 37.5 6.31386 37.5 6.5625V9.375H43.125V6.5625Z" fill="#555555"/>
</g>
<defs>
<clipPath id="clip0_97_227">
<rect width="45" height="45" fill="white"/>
</clipPath>
</defs>
</svg>
