<svg width="39" height="40" viewBox="0 0 39 40" fill="none" xmlns="http://www.w3.org/2000/svg">
<path d="M33.7874 3.57539H31.5804V11.2093H33.7874V3.57349V3.57539ZM35.0833 3.93918H38.353C38.7105 3.93918 39 4.2215 39 4.57013C39 4.91876 38.7105 5.20108 38.353 5.20108H35.0833V9.57984H38.353C38.7105 9.57984 39 9.86216 39 10.2108C39 10.5594 38.7105 10.8417 38.353 10.8417H35.0833V11.3078C35.0833 11.6281 34.9492 11.9199 34.7336 12.1302C34.5179 12.3405 34.2207 12.4712 33.8904 12.4712H31.5804V18.3487C31.5804 19.1578 31.2404 19.8948 30.6945 20.4273C30.1486 20.9597 29.3928 21.2913 28.5632 21.2913H24.7029V22.5229C24.7029 23.2012 24.4192 23.817 23.9607 24.2622C23.5041 24.7075 22.8727 24.986 22.1772 24.986H21.1456V31.8583C21.1456 34.0979 20.2072 36.1347 18.6937 37.6088C17.1803 39.0848 15.0937 40 12.7973 40H10.7437C8.44734 40 6.35882 39.0848 4.84731 37.6088C3.33386 36.1328 2.39549 34.0979 2.39549 31.8583V6.45919H0.646956C0.289479 6.45919 0 6.17687 0 5.82824V2.82317C0 2.50675 0.238966 2.24528 0.549816 2.19791V0.630951C0.549816 0.282317 0.839295 0 1.19677 0H5.42627C5.78375 0 6.07323 0.282317 6.07323 0.630951V2.25854C6.28305 2.36275 6.42682 2.57496 6.42682 2.82128V5.82635C6.42682 6.17498 6.13734 6.4573 5.77986 6.4573H3.6894V31.8564C3.6894 33.7473 4.48401 35.4678 5.76238 36.7145C7.04075 37.9613 8.80482 38.7362 10.7437 38.7362H12.7973C14.7362 38.7362 16.5003 37.9613 17.7787 36.7145C19.057 35.4678 19.8517 33.7473 19.8517 31.8564V24.9841H18.8569C18.1614 24.9841 17.53 24.7075 17.0734 24.2603C16.6169 23.8151 16.3313 23.1993 16.3313 22.521V21.0582C15.9719 20.9085 15.6455 20.6925 15.3735 20.4273C14.8275 19.8948 14.4875 19.1578 14.4875 18.3487V2.94254C14.4875 2.13348 14.8275 1.39643 15.3735 0.864005C15.9194 0.331581 16.6752 0 17.5047 0H28.5632C29.3928 0 30.1486 0.331581 30.6945 0.864005C31.0947 1.25432 31.3842 1.75454 31.5105 2.31159H33.8923C34.2207 2.31159 34.5199 2.44233 34.7355 2.65265C34.9512 2.86296 35.0852 3.15286 35.0852 3.47497V3.93918H35.0833ZM20.4073 23.7222C20.4364 23.7184 20.4675 23.7165 20.4986 23.7165C20.5297 23.7165 20.5608 23.7184 20.5899 23.7222H22.1772C22.5152 23.7222 22.8222 23.5877 23.0456 23.3698C23.2691 23.1519 23.407 22.8525 23.407 22.5229V21.3235H17.6252V22.5229C17.6252 22.8525 17.7631 23.1519 17.9865 23.3698C18.21 23.5877 18.5169 23.7222 18.855 23.7222H20.4054H20.4073ZM1.29586 3.45412V5.1954H5.13485V3.45412H1.29586ZM1.84567 2.19033H4.77932V1.2619H1.84567V2.19033ZM28.5632 1.2619H17.5047C17.0326 1.2619 16.6013 1.45138 16.2885 1.75643C15.9757 2.06148 15.7815 2.48022 15.7815 2.94254V18.3487C15.7815 18.8092 15.9757 19.2298 16.2885 19.5348C16.6013 19.8399 17.0307 20.0294 17.5047 20.0294H28.5632C29.0353 20.0294 29.4666 19.8399 29.7794 19.5348C30.0922 19.2298 30.2865 18.811 30.2865 18.3487V2.94065C30.2865 2.48022 30.0922 2.05959 29.7794 1.75454C29.4666 1.44948 29.0373 1.26001 28.5632 1.26001V1.2619Z" fill="#555555"/>
</svg>
