<svg width="57" height="57" viewBox="0 0 57 57" fill="none" xmlns="http://www.w3.org/2000/svg">
<path d="M18.5197 8.94888C14.3043 8.8429 11.3225 11.2939 9.93403 12.7474C8.19375 14.5687 7.04217 16.7997 7.13212 18.1143V45.0076C7.13212 46.6909 8.52061 48.0544 10.2279 48.0544H12.385C13.2097 48.0544 13.9614 47.7356 14.5172 47.2208C15.1139 46.6571 15.4808 45.8733 15.4808 45.0067V26.9208L15.5788 26.8798C16.5104 27.2557 17.499 27.4436 18.5036 27.4436C21.4445 27.4436 24.0504 25.8013 25.5779 23.3102C26.4765 21.8478 26.9993 20.0835 26.9993 18.1962C26.9993 13.1152 23.2738 9.04685 18.5197 8.94888ZM18.5036 25.8102C17.711 25.8102 16.9272 25.6632 16.1916 25.3613C15.6688 25.1494 15.064 25.2144 14.5902 25.5243C14.1244 25.8431 13.8465 26.3659 13.8465 26.9208V45.0076C13.8465 45.7833 13.1928 46.421 12.3841 46.421H10.227C9.41836 46.421 8.76464 45.7842 8.76464 45.0076V18.0573C8.71566 17.4116 9.43439 15.6312 11.1177 13.8749C12.2942 12.6334 14.7853 10.5823 18.3068 10.5823H18.4867C21.3866 10.6473 23.8126 12.5515 24.8422 15.2714C25.1771 16.1701 25.365 17.1587 25.365 18.1962C25.3659 22.3946 22.2852 25.8102 18.5036 25.8102Z" fill="#555555"/>
<path d="M25.3659 18.1965C25.3659 22.3958 22.2861 25.8104 18.5036 25.8104C17.711 25.8104 16.9272 25.6635 16.1916 25.3615C15.6688 25.1496 15.064 25.2146 14.5902 25.5245C14.1244 25.8434 13.8466 26.3662 13.8466 26.921V45.0078C13.8466 45.7836 13.1928 46.4213 12.3841 46.4213H10.7997C10.5468 46.0703 10.3909 45.6286 10.3909 45.1468V19.9278C10.2769 17.9916 13.8385 11.971 19.5323 12.0939C21.6974 12.1509 23.6247 13.3764 24.8422 15.2716C25.178 16.1703 25.3659 17.1589 25.3659 18.1965Z" fill="#555556" fill-opacity="0.54"/>
<path d="M21.6253 21.0801H20.3971C19.8342 21.0801 19.3773 20.6232 19.3773 20.0603V15.5644C19.3773 15.0016 19.8342 14.5447 20.3971 14.5447H21.6253C22.1881 14.5447 22.645 15.0016 22.645 15.5644V20.0603C22.645 20.6232 22.1881 21.0801 21.6253 21.0801Z" fill="#555555"/>
<path d="M16.5184 18.6293C16.7442 18.6293 16.9272 18.2636 16.9272 17.8126C16.9272 17.3615 16.7442 16.9958 16.5184 16.9958C16.2927 16.9958 16.1096 17.3615 16.1096 17.8126C16.1096 18.2636 16.2927 18.6293 16.5184 18.6293Z" fill="#555555"/>
<path d="M23.8705 18.6293C24.0963 18.6293 24.2793 18.2636 24.2793 17.8126C24.2793 17.3615 24.0963 16.9958 23.8705 16.9958C23.6448 16.9958 23.4617 17.3615 23.4617 17.8126C23.4617 18.2636 23.6448 18.6293 23.8705 18.6293Z" fill="#555555"/>
<path d="M14.4762 40.6865H7.94081V42.3199H14.4762V40.6865Z" fill="#555555"/>
<path d="M30.0007 18.1962C30.0007 20.0835 30.5235 21.8478 31.4221 23.3102C32.9496 25.8022 35.5555 27.4436 38.4964 27.4436C39.501 27.4436 40.4896 27.2557 41.4212 26.8798L41.5192 26.9208V45.0076C41.5192 45.8733 41.887 46.6579 42.4828 47.2217C43.0386 47.7365 43.7903 48.0553 44.615 48.0553H46.7721C48.4794 48.0553 49.8679 46.6909 49.8679 45.0085V18.1143C49.9578 16.7989 48.8063 14.5687 47.066 12.7474C45.6775 11.293 42.6957 8.8429 38.4804 8.94888C33.7262 9.04685 30.0007 13.1152 30.0007 18.1962ZM31.6341 18.1962C31.6341 17.1587 31.822 16.1701 32.1569 15.2714C33.1865 12.5515 35.6125 10.6473 38.5124 10.5823H38.6923C42.213 10.5823 44.7049 12.6325 45.8814 13.8749C47.5647 15.6312 48.2835 17.4125 48.2345 18.0573V45.0076C48.2345 45.7834 47.5808 46.421 46.7721 46.421H44.615C43.8063 46.421 43.1526 45.7842 43.1526 45.0076V26.9208C43.1526 26.3651 42.8747 25.8423 42.4089 25.5243C41.9351 25.2135 41.3304 25.1485 40.8076 25.3613C40.0719 25.6632 39.2881 25.8102 38.4955 25.8102C34.7148 25.8102 31.6341 22.3946 31.6341 18.1962Z" fill="#555555"/>
<path d="M31.6341 18.1965C31.6341 22.3958 34.7139 25.8104 38.4964 25.8104C39.289 25.8104 40.0728 25.6635 40.8084 25.3615C41.3312 25.1496 41.936 25.2146 42.4098 25.5245C42.8756 25.8434 43.1535 26.3662 43.1535 26.921V45.0078C43.1535 45.7836 43.8072 46.4213 44.6159 46.4213H46.2003C46.4532 46.0703 46.6091 45.6286 46.6091 45.1468V19.9278C46.7231 17.9916 43.1615 11.971 37.4677 12.0939C35.3026 12.1509 33.3753 13.3764 32.1578 15.2716C31.822 16.1703 31.6341 17.1589 31.6341 18.1965Z" fill="#555556" fill-opacity="0.54"/>
<path d="M35.3747 21.0801H36.6029C37.1658 21.0801 37.6227 20.6232 37.6227 20.0603V15.5644C37.6227 15.0016 37.1658 14.5447 36.6029 14.5447H35.3747C34.8119 14.5447 34.355 15.0016 34.355 15.5644V20.0603C34.355 20.6232 34.8119 21.0801 35.3747 21.0801Z" fill="#555555"/>
<path d="M40.4816 18.6293C40.7074 18.6293 40.8904 18.2636 40.8904 17.8126C40.8904 17.3615 40.7074 16.9958 40.4816 16.9958C40.2558 16.9958 40.0728 17.3615 40.0728 17.8126C40.0728 18.2636 40.2558 18.6293 40.4816 18.6293Z" fill="#555555"/>
<path d="M33.1295 18.6293C33.3552 18.6293 33.5383 18.2636 33.5383 17.8126C33.5383 17.3615 33.3552 16.9958 33.1295 16.9958C32.9037 16.9958 32.7207 17.3615 32.7207 17.8126C32.7207 18.2636 32.9037 18.6293 33.1295 18.6293Z" fill="#555555"/>
<path d="M49.0592 40.6865H42.5238V42.3199H49.0592V40.6865Z" fill="#555555"/>
</svg>
