<svg width="51" height="51" viewBox="0 0 51 51" fill="none" xmlns="http://www.w3.org/2000/svg">
<g clip-path="url(#clip0_97_233)">
<path d="M45.7406 37.6763H41.8838C40.8 37.6763 39.9181 36.7944 39.9181 35.7106V22.1319C39.9181 21.0481 40.8 20.1663 41.8838 20.1663H45.7406C48.5031 20.1663 50.7556 22.4188 50.7556 25.1813V32.6613C50.745 35.4238 48.5031 37.6763 45.7406 37.6763ZM43.8388 33.7556H45.7406C46.3463 33.7556 46.835 33.2669 46.835 32.6719V25.1813C46.835 24.5756 46.3463 24.0975 45.7406 24.0975H43.8388V33.7556ZM9.12689 37.6763H5.25938C2.49688 37.6763 0.244385 35.4238 0.244385 32.6613V25.1813C0.244385 22.4188 2.49688 20.1663 5.25938 20.1663H9.11626C10.2 20.1663 11.0819 21.0481 11.0819 22.1319V35.7213C11.0819 36.7944 10.2106 37.6763 9.12689 37.6763ZM5.25938 24.0869C4.65376 24.0869 4.16501 24.5756 4.16501 25.1706V32.6506C4.16501 33.2563 4.65376 33.7344 5.25938 33.7344H7.16126V24.0763H5.25938V24.0869Z" fill="#555555"/>
<path d="M44.6888 24.0869C43.605 24.0869 42.7232 23.205 42.7232 22.1213V20.655C42.7232 11.4219 35.2113 3.91 25.9782 3.91H25.0113C15.7675 3.91 8.25565 11.4219 8.25565 20.655V22.1213C8.25565 23.205 7.37378 24.0869 6.29003 24.0869C5.20628 24.0869 4.3244 23.205 4.3244 22.1213V20.655C4.34565 9.27563 13.6213 0 25.0219 0H25.9888C37.3788 0 46.6438 9.27563 46.6438 20.6656V22.1319C46.6438 23.2156 45.7725 24.0869 44.6888 24.0869ZM41.1188 48.1312H32.5869C31.5032 48.1312 30.6213 47.2494 30.6213 46.1656C30.6213 45.0819 31.5032 44.2 32.5869 44.2H41.1188C42.585 44.2 43.775 43.01 43.775 41.5544V35.7106C43.775 34.6269 44.6569 33.745 45.7407 33.745C46.8244 33.745 47.7063 34.6269 47.7063 35.7106V41.5544C47.7063 45.1881 44.7525 48.1312 41.1188 48.1312Z" fill="#555555"/>
<path d="M31.0675 50.9999H25.8187C23.8956 50.9999 22.3337 49.438 22.3337 47.5149V44.848C22.3337 42.9249 23.8956 41.363 25.8187 41.363H31.0675C32.9906 41.363 34.5525 42.9249 34.5525 44.848V47.5149C34.5525 49.438 32.9906 50.9999 31.0675 50.9999ZM26.2544 47.0793H30.6319V45.2837H26.2544V47.0793Z" fill="#555555"/>
</g>
<defs>
<clipPath id="clip0_97_233">
<rect width="51" height="51" fill="white"/>
</clipPath>
</defs>
</svg>
