<svg width="69" height="55" viewBox="0 0 69 55" fill="none" xmlns="http://www.w3.org/2000/svg">
<path d="M67.7667 12.3212H52.9813C52.6545 12.3212 52.3411 12.1914 52.11 11.9603C51.879 11.7293 51.7491 11.4159 51.7491 11.0891V8.62486C51.7491 6.3374 52.6578 4.14364 54.2753 2.52616C55.8928 0.908688 58.0865 0 60.374 0C62.6615 0 64.8552 0.908688 66.4727 2.52616C68.0902 4.14364 68.9989 6.3374 68.9989 8.62486V11.0891C68.9989 11.4159 68.869 11.7293 68.638 11.9603C68.4069 12.1914 68.0935 12.3212 67.7667 12.3212ZM54.2134 9.85698H66.5346V8.62486C66.5346 6.99096 65.8856 5.42399 64.7302 4.26865C63.5749 3.11331 62.0079 2.46424 60.374 2.46424C58.7401 2.46424 57.1731 3.11331 56.0178 4.26865C54.8624 5.42399 54.2134 6.99096 54.2134 8.62486V9.85698ZM45.5885 54.2134H8.62486C6.3374 54.2134 4.14364 53.3047 2.52616 51.6872C0.908688 50.0698 0 47.876 0 45.5885V43.1243C0 42.7975 0.129813 42.4841 0.360881 42.253C0.591948 42.022 0.905343 41.8922 1.23212 41.8922H38.1958C38.5226 41.8922 38.836 42.022 39.067 42.253C39.2981 42.4841 39.4279 42.7975 39.4279 43.1243V45.5885C39.4279 47.2224 40.077 48.7894 41.2323 49.9447C42.3877 51.1001 43.9546 51.7491 45.5885 51.7491C45.9153 51.7491 46.2287 51.879 46.4598 52.11C46.6908 52.3411 46.8207 52.6545 46.8207 52.9813C46.8207 53.308 46.6908 53.6214 46.4598 53.8525C46.2287 54.0836 45.9153 54.2134 45.5885 54.2134ZM2.46424 44.3564V45.5885C2.46424 47.2224 3.11331 48.7894 4.26865 49.9447C5.42399 51.1001 6.99096 51.7491 8.62486 51.7491H39.5634C38.7418 50.947 38.0887 49.9889 37.6422 48.931C37.1958 47.8731 36.9651 46.7368 36.9637 45.5885V44.3564H2.46424Z" fill="#555555"/>
<path d="M45.5885 54.2134C43.301 54.2134 41.1072 53.3047 39.4898 51.6872C37.8723 50.0697 36.9636 47.876 36.9636 45.5885V44.3564H16.0175C15.6907 44.3564 15.3773 44.2266 15.1463 43.9955C14.9152 43.7645 14.7854 43.4511 14.7854 43.1243V8.62486C14.7854 6.3374 15.6941 4.14364 17.3116 2.52616C18.929 0.908688 21.1228 0 23.4103 0H60.3739C60.7007 0 61.0141 0.129813 61.2452 0.36088C61.4762 0.591948 61.6061 0.905343 61.6061 1.23212C61.6061 1.5589 61.4762 1.8723 61.2452 2.10336C61.0141 2.33443 60.7007 2.46424 60.3739 2.46424C58.74 2.46424 57.1731 3.11331 56.0177 4.26865C54.8624 5.42398 54.2133 6.99096 54.2133 8.62486V25.6898C54.2235 25.9663 54.1404 26.2382 53.9772 26.4618C53.814 26.6853 53.5804 26.8473 53.3139 26.9219L46.8206 28.7208V38.3683C46.8142 40.4687 47.2857 42.543 48.1993 44.4343C49.1129 46.3256 50.4448 47.9843 52.0941 49.2849C52.2243 49.3823 52.3323 49.5062 52.4109 49.6486C52.4895 49.7909 52.5369 49.9483 52.55 50.1104C52.5691 50.2719 52.5562 50.4357 52.5118 50.5922C52.4673 50.7487 52.3924 50.8948 52.2912 51.0222C52.103 51.2555 51.9014 51.4776 51.6875 51.6875C50.891 52.4945 49.941 53.1337 48.8935 53.5676C47.846 54.0014 46.7222 54.221 45.5885 54.2134ZM17.2496 41.8922H38.1957C38.5225 41.8922 38.8359 42.022 39.067 42.253C39.298 42.4841 39.4278 42.7975 39.4278 43.1243V45.5885C39.4263 46.7614 39.7596 47.9103 40.3886 48.9002C41.0175 49.8902 41.916 50.68 42.9784 51.1769C44.0408 51.6738 45.2229 51.8571 46.3859 51.7053C47.5489 51.5535 48.6443 51.0728 49.5436 50.3199C47.9024 48.7924 46.5946 46.9424 45.7019 44.8857C44.8093 42.8291 44.3512 40.6103 44.3563 38.3683V27.7967C44.3461 27.5201 44.4293 27.2482 44.5925 27.0247C44.7556 26.8012 44.9893 26.6391 45.2558 26.5646L51.7491 24.7657V8.62486C51.7431 7.49022 51.9646 6.3659 52.4006 5.31834C52.8365 4.27078 53.4781 3.32124 54.2872 2.52585V2.46424H23.4103C21.7764 2.46424 20.2094 3.11331 19.054 4.26865C17.8987 5.42398 17.2496 6.99096 17.2496 8.62486V41.8922Z" fill="#555555"/>
<path d="M45.5889 13.5534H23.4107C23.0839 13.5534 22.7705 13.4235 22.5394 13.1925C22.3083 12.9614 22.1785 12.648 22.1785 12.3212C22.1785 11.9945 22.3083 11.6811 22.5394 11.45C22.7705 11.2189 23.0839 11.0891 23.4107 11.0891H45.5889C45.9156 11.0891 46.229 11.2189 46.4601 11.45C46.6912 11.6811 46.821 11.9945 46.821 12.3212C46.821 12.648 46.6912 12.9614 46.4601 13.1925C46.229 13.4235 45.9156 13.5534 45.5889 13.5534ZM45.5889 20.9461H23.4107C23.0839 20.9461 22.7705 20.8163 22.5394 20.5852C22.3083 20.3541 22.1785 20.0407 22.1785 19.714C22.1785 19.3872 22.3083 19.0738 22.5394 18.8427C22.7705 18.6117 23.0839 18.4818 23.4107 18.4818H45.5889C45.9156 18.4818 46.229 18.6117 46.4601 18.8427C46.6912 19.0738 46.821 19.3872 46.821 19.714C46.821 20.0407 46.6912 20.3541 46.4601 20.5852C46.229 20.8163 45.9156 20.9461 45.5889 20.9461ZM40.6604 28.3388H23.4107C23.0839 28.3388 22.7705 28.209 22.5394 27.9779C22.3083 27.7469 22.1785 27.4335 22.1785 27.1067C22.1785 26.7799 22.3083 26.4665 22.5394 26.2355C22.7705 26.0044 23.0839 25.8746 23.4107 25.8746H40.6604C40.9871 25.8746 41.3005 26.0044 41.5316 26.2355C41.7627 26.4665 41.8925 26.7799 41.8925 27.1067C41.8925 27.4335 41.7627 27.7469 41.5316 27.9779C41.3005 28.209 40.9871 28.3388 40.6604 28.3388ZM40.6604 35.7316H23.4107C23.0839 35.7316 22.7705 35.6017 22.5394 35.3707C22.3083 35.1396 22.1785 34.8262 22.1785 34.4994C22.1785 34.1727 22.3083 33.8593 22.5394 33.6282C22.7705 33.3971 23.0839 33.2673 23.4107 33.2673H40.6604C40.9871 33.2673 41.3005 33.3971 41.5316 33.6282C41.7627 33.8593 41.8925 34.1727 41.8925 34.4994C41.8925 34.8262 41.7627 35.1396 41.5316 35.3707C41.3005 35.6017 40.9871 35.7316 40.6604 35.7316ZM56.678 54.2134C56.5678 54.2313 56.4554 54.2313 56.3453 54.2134C52.8957 53.2353 49.8591 51.1592 47.6957 48.2999C45.5323 45.4405 44.3601 41.9538 44.3567 38.3683V27.7967C44.3465 27.5201 44.4297 27.2482 44.5928 27.0247C44.756 26.8012 44.9897 26.6391 45.2562 26.5646L56.3453 23.4103C56.5629 23.3493 56.793 23.3493 57.0106 23.4103L68.0997 26.5646C68.3662 26.6391 68.5999 26.8012 68.7631 27.0247C68.9262 27.2482 69.0094 27.5201 68.9992 27.7967V38.3683C68.9938 41.9533 67.8208 45.4391 65.6577 48.298C63.4946 51.1569 60.4591 53.2335 57.0106 54.2134C56.9005 54.2313 56.7881 54.2313 56.678 54.2134ZM46.821 28.7208V38.3683C46.8146 40.4687 47.2861 42.543 48.1997 44.4343C49.1133 46.3256 50.4452 47.9843 52.0945 49.2849C53.4553 50.3849 55.0099 51.2207 56.678 51.7492C59.5229 50.8603 62.0113 49.0894 63.7833 46.6928C65.5552 44.2962 66.5189 41.3981 66.5349 38.4176V28.7331L56.678 25.8746L46.821 28.7208Z" fill="#555555"/>
<path d="M55.4452 43.1243C55.2831 43.1252 55.1223 43.0941 54.9722 43.0328C54.8221 42.9715 54.6856 42.8812 54.5704 42.767L51.4901 39.6867C51.3753 39.5718 51.2841 39.4354 51.222 39.2853C51.1598 39.1352 51.1278 38.9743 51.1278 38.8119C51.1278 38.6494 51.1598 38.4885 51.222 38.3384C51.2841 38.1883 51.3753 38.0519 51.4901 37.9371C51.605 37.8222 51.7414 37.731 51.8915 37.6689C52.0416 37.6067 52.2025 37.5747 52.3649 37.5747C52.5274 37.5747 52.6883 37.6067 52.8384 37.6689C52.9885 37.731 53.1249 37.8222 53.2397 37.9371L55.4452 40.1549L60.7311 34.8567C60.9631 34.6247 61.2777 34.4944 61.6059 34.4944C61.934 34.4944 62.2487 34.6247 62.4807 34.8567C62.7127 35.0888 62.843 35.4034 62.843 35.7316C62.843 36.0597 62.7127 36.3743 62.4807 36.6064L56.3201 42.767C56.2049 42.8812 56.0684 42.9715 55.9183 43.0328C55.7682 43.0941 55.6074 43.1252 55.4452 43.1243Z" fill="#555555"/>
</svg>
