<svg width="77" height="77" viewBox="0 0 77 77" fill="none" xmlns="http://www.w3.org/2000/svg">
<path d="M37.8543 18.4724L13.3114 43.0154L24.9367 54.6407L49.4797 30.0978L37.8543 18.4724Z" fill="#CBCBCB"/>
<path d="M25.3342 30.9924L21.7249 34.6018L25.635 38.5108L27.9402 40.8159C28.3916 41.2671 28.7488 41.8035 28.991 42.394C29.2331 42.9845 29.3554 43.6172 29.3507 44.2554C29.346 44.8936 29.2144 45.5245 28.9636 46.1114C28.7127 46.6982 28.3477 47.2293 27.8897 47.6738L22.099 53.2984L24.249 55.1632L33.4373 46.147L37.0466 42.3668L25.3342 30.9924Z" fill="#434343"/>
<path d="M30.0396 13.4028C29.7643 13.6328 29.5399 13.9176 29.3806 14.2392C29.2214 14.5607 29.1309 14.9119 29.1148 15.2703C29.0987 15.6287 29.1575 15.9866 29.2873 16.321C29.4171 16.6555 29.6151 16.9593 29.8688 17.2131L28.1712 15.5203C27.7109 15.0355 27.0877 14.7381 26.4214 14.6853C25.7551 14.6324 25.0927 14.8278 24.5618 15.2339C24.2864 15.4639 24.0619 15.7488 23.9027 16.0704C23.7435 16.392 23.653 16.7432 23.637 17.1017C23.6211 17.4602 23.68 17.818 23.81 18.1525C23.94 18.4869 24.1383 18.7906 24.3922 19.0442L26.2185 20.8706C25.9648 20.6169 25.661 20.4189 25.3265 20.2891C24.992 20.1593 24.6342 20.1005 24.2757 20.1166C23.9173 20.1327 23.5661 20.2232 23.2446 20.3824C22.9231 20.5416 22.6382 20.7661 22.4082 21.0414C22.0021 21.5723 21.8067 22.2347 21.8596 22.901C21.9124 23.5673 22.2098 24.1905 22.6946 24.6508L24.3886 26.3484C24.1348 26.0947 23.831 25.8967 23.4965 25.7669C23.162 25.6371 22.8042 25.5783 22.4458 25.5944C22.0873 25.6105 21.7362 25.701 21.4147 25.8602C21.0931 26.0195 20.8083 26.2439 20.5783 26.5192C20.1722 27.0501 19.9767 27.7125 20.0296 28.3788C20.0825 29.0451 20.3799 29.6684 20.8646 30.1286L23.4742 32.7382L28.0461 37.3101L34.798 44.0608C36.238 45.5006 38.1656 46.3481 40.2 46.4358C42.2995 46.5248 44.672 46.6283 44.6805 46.6379L53.343 55.3004C53.3468 55.3044 53.3514 55.3075 53.3564 55.3097C53.3615 55.3118 53.3669 55.3129 53.3724 55.3129C53.3779 55.3129 53.3834 55.3118 53.3885 55.3097C53.3935 55.3075 53.3981 55.3044 53.4019 55.3004L64.2998 44.3953C64.3038 44.3915 64.3069 44.3869 64.3091 44.3818C64.3113 44.3767 64.3124 44.3713 64.3124 44.3658C64.3124 44.3603 64.3113 44.3548 64.3091 44.3498C64.3069 44.3447 64.3038 44.3401 64.2998 44.3363L42.6556 22.6921L37.5772 17.6137L33.6514 13.6891C33.1909 13.204 32.5672 12.9063 31.9004 12.8535C31.2336 12.8006 30.5708 12.9962 30.0396 13.4028Z" fill="#CBCBCB"/>
<path d="M30.0396 13.4028C29.7643 13.6328 29.5399 13.9176 29.3806 14.2392C29.2214 14.5607 29.1309 14.9119 29.1148 15.2703C29.0987 15.6287 29.1575 15.9866 29.2873 16.321C29.4171 16.6555 29.6151 16.9593 29.8688 17.2131L28.1712 15.5203C27.7109 15.0355 27.0877 14.7381 26.4214 14.6853C25.7551 14.6324 25.0927 14.8278 24.5618 15.2339C24.2864 15.4639 24.0619 15.7488 23.9027 16.0704C23.7435 16.392 23.653 16.7432 23.637 17.1017C23.6211 17.4602 23.68 17.818 23.81 18.1525C23.94 18.4869 24.1383 18.7906 24.3922 19.0442L26.2185 20.8706C25.9648 20.6169 25.661 20.4189 25.3265 20.2891C24.992 20.1593 24.6342 20.1005 24.2757 20.1166C23.9173 20.1327 23.5661 20.2232 23.2446 20.3824C22.9231 20.5416 22.6382 20.7661 22.4082 21.0414C22.0021 21.5723 21.8067 22.2347 21.8596 22.901C21.9124 23.5673 22.2098 24.1905 22.6946 24.6508L24.3886 26.3484C24.1348 26.0947 23.831 25.8967 23.4965 25.7669C23.162 25.6371 22.8042 25.5783 22.4458 25.5944C22.0873 25.6105 21.7362 25.701 21.4147 25.8602C21.0931 26.0195 20.8083 26.2439 20.5783 26.5192C20.1722 27.0501 19.9767 27.7125 20.0296 28.3788C20.0825 29.0451 20.3799 29.6684 20.8646 30.1286L23.4742 32.7382L28.0461 37.3101L34.798 44.0608C36.238 45.5006 38.1656 46.3481 40.2 46.4358C42.2995 46.5248 44.672 46.6283 44.6805 46.6379L53.343 55.3004C53.3468 55.3044 53.3514 55.3075 53.3564 55.3097C53.3615 55.3118 53.3669 55.3129 53.3724 55.3129C53.3779 55.3129 53.3834 55.3118 53.3885 55.3097C53.3935 55.3075 53.3981 55.3044 53.4019 55.3004L64.2998 44.3953C64.3038 44.3915 64.3069 44.3869 64.3091 44.3818C64.3113 44.3767 64.3124 44.3713 64.3124 44.3658C64.3124 44.3603 64.3113 44.3548 64.3091 44.3498C64.3069 44.3447 64.3038 44.3401 64.2998 44.3363L42.6556 22.6921L37.5772 17.6137L33.6514 13.6891C33.1909 13.204 32.5672 12.9063 31.9004 12.8535C31.2336 12.8006 30.5708 12.9962 30.0396 13.4028Z" fill="#CBCBCB"/>
<path d="M53.9999 52.2903C53.996 52.2943 53.9915 52.2974 53.9864 52.2996C53.9813 52.3017 53.9759 52.3028 53.9704 52.3028C53.9649 52.3028 53.9594 52.3017 53.9544 52.2996C53.9493 52.2974 53.9447 52.2943 53.9409 52.2903L45.9329 44.2823C45.5091 43.8583 44.9424 43.6077 44.3436 43.5797C43.4581 43.54 42.0769 43.4798 40.7968 43.4257C38.7623 43.338 36.8347 42.4905 35.3947 41.0507L28.6428 34.3L21.4649 27.1233C21.2122 26.8682 21.0083 26.5689 20.8634 26.2402C20.7602 26.3254 20.6636 26.4183 20.5746 26.5182C20.1686 27.049 19.9732 27.7112 20.0258 28.3775C20.0784 29.0437 20.3755 29.667 20.8598 30.1275L28.0376 37.3042L34.7896 44.0549C36.2295 45.4947 38.1571 46.3422 40.1916 46.4299C42.2898 46.5189 44.6636 46.6224 44.672 46.632L53.3345 55.2945C53.3383 55.2985 53.3429 55.3016 53.348 55.3038C53.3531 55.3059 53.3585 55.307 53.364 55.307C53.3695 55.307 53.375 55.3059 53.38 55.3038C53.3851 55.3016 53.3897 55.2985 53.3935 55.2945L64.2998 44.3954C64.3038 44.3916 64.3069 44.387 64.3091 44.3819C64.3112 44.3769 64.3124 44.3714 64.3124 44.3659C64.3124 44.3604 64.3112 44.355 64.3091 44.3499C64.3069 44.3448 64.3038 44.3403 64.2998 44.3364L63.1268 43.1634L53.9999 52.2903Z" fill="#434343"/>
<path d="M47.3241 15.9587L39.6879 23.5949C38.7482 24.5346 38.7482 26.0582 39.6879 26.9979L39.9389 27.2488C40.8786 28.1885 42.4021 28.1885 43.3418 27.2488L50.9781 19.6126C51.9178 18.6729 51.9178 17.1494 50.9781 16.2097L50.7271 15.9587C49.7874 15.019 48.2638 15.019 47.3241 15.9587Z" fill="#CBCBCB"/>
<path d="M50.8741 16.105L43.3402 23.639C42.8889 24.0901 42.277 24.3435 41.6389 24.3435C41.0009 24.3435 40.389 24.0901 39.9377 23.639L39.7897 23.491L39.6875 23.5944C39.4639 23.8179 39.2866 24.0832 39.1656 24.3752C39.0446 24.6672 38.9824 24.9802 38.9824 25.2963C38.9824 25.6123 39.0446 25.9253 39.1656 26.2173C39.2866 26.5093 39.4639 26.7746 39.6875 26.9981L39.9377 27.2483C40.389 27.6994 41.0009 27.9528 41.6389 27.9528C42.277 27.9528 42.8889 27.6994 43.3402 27.2483L50.9776 19.6109C51.2011 19.3874 51.3785 19.1221 51.4995 18.8301C51.6205 18.5381 51.6827 18.2251 51.6827 17.9091C51.6827 17.593 51.6205 17.28 51.4995 16.988C51.3785 16.696 51.2011 16.4307 50.9776 16.2072L50.8741 16.105Z" fill="#434343"/>
<path d="M50.9738 19.615L41.5893 28.9995C40.6496 29.9392 40.6496 31.4627 41.5893 32.4024L41.8403 32.6534C42.78 33.5931 44.3035 33.5931 45.2432 32.6534L54.6277 23.2689C55.5674 22.3292 55.5674 20.8056 54.6277 19.8659L54.3767 19.615C53.437 18.6753 51.9135 18.6753 50.9738 19.615Z" fill="#CBCBCB"/>
<path d="M54.5244 19.7612L45.2375 29.0433C44.7862 29.4944 44.1743 29.7479 43.5363 29.7479C42.8982 29.7479 42.2863 29.4944 41.835 29.0433L41.6871 28.8954L41.5836 28.9988C41.3601 29.2223 41.1827 29.4876 41.0617 29.7796C40.9407 30.0716 40.8785 30.3846 40.8785 30.7006C40.8785 31.0167 40.9407 31.3297 41.0617 31.6217C41.1827 31.9137 41.3601 32.179 41.5836 32.4025L41.835 32.6527C42.2863 33.1038 42.8982 33.3572 43.5363 33.3572C44.1743 33.3572 44.7862 33.1038 45.2375 32.6527L54.6219 23.2683C54.8454 23.0449 55.0227 22.7796 55.1437 22.4876C55.2647 22.1956 55.327 21.8826 55.327 21.5665C55.327 21.2504 55.2647 20.9375 55.1437 20.6455C55.0227 20.3535 54.8454 20.0882 54.6219 19.8647L54.5244 19.7612Z" fill="#434343"/>
<path d="M54.6479 23.2504L47.0117 30.8867C46.072 31.8264 46.072 33.3499 47.0117 34.2896L47.2626 34.5406C48.2023 35.4803 49.7259 35.4803 50.6656 34.5406L58.3018 26.9044C59.2415 25.9647 59.2415 24.4411 58.3018 23.5014L58.0508 23.2504C57.1111 22.3107 55.5876 22.3107 54.6479 23.2504Z" fill="#CBCBCB"/>
<path d="M58.1988 23.396L50.6648 30.93C50.2136 31.3811 49.6016 31.6345 48.9636 31.6345C48.3255 31.6345 47.7136 31.3811 47.2624 30.93L47.1144 30.782L47.0109 30.8854C46.7874 31.1089 46.61 31.3742 46.489 31.6662C46.3681 31.9582 46.3058 32.2712 46.3058 32.5873C46.3058 32.9033 46.3681 33.2163 46.489 33.5083C46.61 33.8003 46.7874 34.0656 47.0109 34.2891L47.2624 34.5393C47.7136 34.9904 48.3255 35.2439 48.9636 35.2439C49.6016 35.2439 50.2136 34.9904 50.6648 34.5393L58.301 26.9031C58.5246 26.6797 58.7019 26.4143 58.8229 26.1223C58.9439 25.8303 59.0061 25.5174 59.0061 25.2013C59.0061 24.8852 58.9439 24.5722 58.8229 24.2802C58.7019 23.9882 58.5246 23.7229 58.301 23.4995L58.1988 23.396Z" fill="#434343"/>
<path d="M57.0979 28.1054L51.2712 33.9321C50.3315 34.8718 50.3315 36.3953 51.2712 37.335L51.5221 37.586C52.4618 38.5257 53.9854 38.5257 54.9251 37.586L60.7518 31.7593C61.6915 30.8196 61.6915 29.296 60.7518 28.3563L60.5008 28.1054C59.5611 27.1657 58.0376 27.1657 57.0979 28.1054Z" fill="#CBCBCB"/>
<path d="M60.6483 28.2529L54.9251 33.9762C54.4738 34.4273 53.8619 34.6807 53.2238 34.6807C52.5858 34.6807 51.9739 34.4273 51.5226 33.9762L51.3746 33.8294L51.2724 33.9317C51.0488 34.1551 50.8715 34.4204 50.7505 34.7124C50.6295 35.0044 50.5673 35.3174 50.5673 35.6335C50.5673 35.9496 50.6295 36.2626 50.7505 36.5546C50.8715 36.8466 51.0488 37.1119 51.2724 37.3353L51.5226 37.5856C51.9739 38.0367 52.5858 38.2901 53.2238 38.2901C53.8619 38.2901 54.4738 38.0367 54.9251 37.5856L60.7578 31.7624C61.2089 31.3112 61.4623 30.6993 61.4623 30.0612C61.4623 29.4232 61.2089 28.8112 60.7578 28.36L60.6483 28.2529Z" fill="#434343"/>
<path d="M37.5772 17.6149L40.2061 20.2438H43.2006C43.5653 20.2514 43.9278 20.1862 44.267 20.0519C44.6061 19.9177 44.915 19.717 45.1756 19.4618C45.4362 19.2066 45.6433 18.902 45.7846 18.5657C45.926 18.2295 45.9988 17.8684 45.9988 17.5037C45.9988 17.1389 45.926 16.7778 45.7846 16.4416C45.6433 16.1053 45.4362 15.8007 45.1756 15.5455C44.915 15.2903 44.6061 15.0897 44.267 14.9554C43.9278 14.8211 43.5653 14.7559 43.2006 14.7635H34.7258L37.5772 17.6149Z" fill="#CBCBCB"/>
<path d="M43.5038 14.7983C43.5204 14.8991 43.5308 15.0007 43.5351 15.1027C43.5348 15.8294 43.2459 16.5262 42.7319 17.0399C42.218 17.5537 41.5211 17.8422 40.7944 17.8422H37.7998L40.2061 20.2485H43.2006C43.8994 20.2485 44.5716 19.981 45.0792 19.5009C45.5868 19.0208 45.8913 18.3645 45.9301 17.6668C45.9689 16.9692 45.7391 16.2832 45.2879 15.7497C44.8366 15.2162 44.1982 14.8758 43.5038 14.7983Z" fill="#434343"/>
<path d="M65.2947 40.7201L49.7671 56.2478L57.8635 64.3443L73.3912 48.8166L65.2947 40.7201Z" fill="#545A6D"/>
<path d="M53.3754 52.6368L49.7661 56.2462L57.8631 64.3432L73.3906 48.8157L70.9844 46.4094L64.7558 52.6368C63.2466 54.1458 61.1998 54.9935 59.0656 54.9935C56.9314 54.9935 54.8846 54.1458 53.3754 52.6368Z" fill="#44394A"/>
<path d="M11.7056 40.7192L3.60913 48.8157L19.1368 64.3433L27.2333 56.2469L11.7056 40.7192Z" fill="#545A6D"/>
<path d="M15.3146 44.3279L11.7052 40.7185L3.60938 48.8155L19.1369 64.3431L22.7463 60.7337L15.3146 53.2984C14.1261 52.1082 13.4586 50.495 13.4586 48.8131C13.4586 47.1312 14.1261 45.518 15.3146 44.3279Z" fill="#44394A"/>
<path d="M29.7569 30.0217C29.987 29.7912 30.1173 29.4795 30.1198 29.1539C30.1223 28.8283 29.9967 28.5147 29.7702 28.2807L22.5839 20.8647H22.5646C22.0804 21.3838 21.8218 22.0738 21.8455 22.7833C21.8692 23.4928 22.1732 24.164 22.691 24.6497L24.3886 26.3485C24.2909 26.2559 24.1859 26.1715 24.0746 26.0959L28.0016 30.0229C28.1168 30.1381 28.2537 30.2296 28.4044 30.2919C28.555 30.3542 28.7165 30.3863 28.8795 30.3861C29.0425 30.386 29.2039 30.3538 29.3545 30.2912C29.505 30.2287 29.6418 30.1371 29.7569 30.0217ZM24.2009 15.6022C23.8034 16.0979 23.6027 16.7229 23.6373 17.3574C23.672 17.9918 23.9395 18.5912 24.3886 19.0407L26.2149 20.8671C26.0441 20.6962 31.6976 26.4989 31.6976 26.4989C31.9206 26.7215 32.2208 26.8497 32.5359 26.8566C32.8509 26.8636 33.1565 26.7488 33.3892 26.5362C33.51 26.4262 33.6075 26.2931 33.6761 26.1448C33.7446 25.9964 33.7826 25.8358 33.788 25.6725C33.7934 25.5092 33.766 25.3465 33.7074 25.1939C33.6488 25.0414 33.5602 24.9022 33.4469 24.7845L24.6749 15.737L24.2009 15.6022ZM29.8688 17.2132L35.2372 22.7211C35.4646 22.9484 35.7718 23.078 36.0933 23.0823C36.4149 23.0865 36.7254 22.9651 36.9588 22.744C37.0772 22.6317 37.1721 22.497 37.2381 22.3478C37.3041 22.1986 37.3399 22.0378 37.3434 21.8747C37.3468 21.7115 37.3179 21.5493 37.2583 21.3975C37.1987 21.2456 37.1096 21.107 36.9961 20.9898L29.8375 13.6074C29.3693 14.0927 29.1102 14.7424 29.1161 15.4167C29.1219 16.091 29.3922 16.7361 29.8688 17.2132Z" fill="#434343"/>
<path d="M63.0438 52.6152C63.2018 52.6156 63.3584 52.5847 63.5044 52.5241C63.6504 52.4636 63.7829 52.3748 63.8944 52.2627L70.3672 45.7898L68.666 44.0886L62.1931 50.5614C62.0249 50.7297 61.9104 50.944 61.864 51.1774C61.8176 51.4107 61.8414 51.6526 61.9325 51.8724C62.0235 52.0922 62.1777 52.2801 62.3755 52.4123C62.5733 52.5445 62.8058 52.6151 63.0438 52.6152ZM8.33525 44.0886L6.63403 45.7898L13.1068 52.2627C13.3338 52.4818 13.6377 52.6031 13.9531 52.6003C14.2686 52.5976 14.5703 52.4711 14.7934 52.248C15.0165 52.0249 15.143 51.7232 15.1458 51.4077C15.1485 51.0923 15.0272 50.7883 14.8081 50.5614L8.33525 44.0886ZM16.5406 52.7042C16.2849 52.704 16.0349 52.7796 15.8222 52.9215C15.6096 53.0634 15.4437 53.2652 15.3458 53.5013C15.2478 53.7375 15.2222 53.9974 15.272 54.2482C15.3218 54.4989 15.4449 54.7293 15.6257 54.91C15.8065 55.0908 16.0368 55.2139 16.2876 55.2637C16.5383 55.3136 16.7982 55.2879 17.0344 55.1899C17.2706 55.092 17.4724 54.9262 17.6143 54.7135C17.7561 54.5008 17.8318 54.2508 17.8315 53.9952C17.8315 53.6528 17.6955 53.3244 17.4534 53.0823C17.2113 52.8402 16.8829 52.7042 16.5406 52.7042ZM60.4594 52.7042C60.2038 52.7042 59.9539 52.78 59.7414 52.9221C59.5289 53.0641 59.3633 53.266 59.2655 53.5021C59.1678 53.7383 59.1422 53.9982 59.1922 54.2489C59.2422 54.4996 59.3653 54.7298 59.5462 54.9105C59.727 55.0911 59.9574 55.2141 60.2081 55.2638C60.4588 55.3136 60.7187 55.2878 60.9548 55.1898C61.1909 55.0918 61.3926 54.926 61.5344 54.7134C61.6763 54.5007 61.7518 54.2508 61.7516 53.9952C61.7518 53.8255 61.7184 53.6574 61.6535 53.5007C61.5886 53.3439 61.4934 53.2015 61.3734 53.0815C61.2534 52.9616 61.1109 52.8666 60.954 52.8018C60.7972 52.7371 60.6291 52.7039 60.4594 52.7042Z" fill="#F7FCFF"/>
</svg>
