<svg width="32" height="58" viewBox="0 0 32 58" fill="none" xmlns="http://www.w3.org/2000/svg">
<path d="M27.5556 0.000282541H4.44444C3.28093 -0.0130297 2.15971 0.444549 1.32658 1.27271C0.493453 2.10086 0.0163981 3.23202 0 4.41821V53.5818C0.0163981 54.768 0.493453 55.8991 1.32658 56.7273C2.15971 57.5554 3.28093 58.013 4.44444 57.9997H27.5556C28.7191 58.013 29.8403 57.5554 30.6734 56.7273C31.5065 55.8991 31.9836 54.768 32 53.5818V4.41821C31.9836 3.23202 31.5065 2.10086 30.6734 1.27271C29.8403 0.444549 28.7191 -0.0130297 27.5556 0.000282541ZM30.2222 53.5818C30.2059 54.2873 29.9162 54.9575 29.4164 55.4457C28.9167 55.934 28.2476 56.2006 27.5556 56.1872H4.44444C3.75239 56.2006 3.08331 55.934 2.58357 55.4457C2.08383 54.9575 1.79411 54.2873 1.77778 53.5818V4.41821C1.79411 3.71272 2.08383 3.04253 2.58357 2.55427C3.08331 2.066 3.75239 1.79939 4.44444 1.81276H8.88889C8.90649 2.28774 9.09944 2.7384 9.4291 3.07449C9.75876 3.41059 10.2008 3.6073 10.6667 3.62525H21.3333C21.7946 3.59344 22.2288 3.39227 22.5557 3.05901C22.8826 2.72575 23.0799 2.28299 23.1111 1.81276H27.5556C28.2476 1.79939 28.9167 2.066 29.4164 2.55427C29.9162 3.04253 30.2059 3.71272 30.2222 4.41821V53.5818Z" fill="#757575"/>
</svg>
