<svg width="54" height="54" viewBox="0 0 54 54" fill="none" xmlns="http://www.w3.org/2000/svg">
<path d="M9.2286 53.9744H44.2537V53.9985C44.3854 54.0072 44.5799 53.9744 44.7439 53.9744H44.7702C49.8409 53.9744 54 49.9104 54 44.8637V1.0541C53.9983 0.916912 53.9694 0.781414 53.9149 0.655372C53.8604 0.529331 53.7815 0.415225 53.6825 0.319599C53.5836 0.223972 53.4667 0.148707 53.3385 0.0981173C53.2103 0.0475279 53.0733 0.0226104 52.9354 0.0247935L11.0027 0.000557476H11.0015C10.8659 -0.00391468 10.7308 0.0185569 10.6041 0.066657C10.4774 0.114757 10.3615 0.187519 10.2634 0.280685C10.1653 0.37385 10.0869 0.485547 10.0327 0.609238C9.97849 0.732928 9.94965 0.866128 9.94785 1.00104L9.63716 43.7561H1.07776C0.791462 43.7648 0.519579 43.883 0.318791 44.0862C0.118002 44.2894 0.00380322 44.5618 0 44.8467V44.8648C0 49.9107 4.15787 53.9744 9.2286 53.9744ZM12.0596 2.03912L51.8927 2.10108V44.8627C51.8927 48.7535 48.681 51.8784 44.7692 51.8784H44.7449C43.8139 51.8788 42.892 51.6968 42.0317 51.3427C41.1715 50.9886 40.3898 50.4694 39.7313 49.8148C39.0728 49.1602 38.5504 48.3829 38.194 47.5275C37.8375 46.672 37.654 45.755 37.6539 44.829C37.6544 44.5473 37.5437 44.2767 37.3457 44.0753C37.1493 43.8753 36.8814 43.7605 36.6003 43.7561H11.7446L12.0596 2.03912ZM35.6056 45.8522C35.7276 47.0229 36.0813 48.1581 36.6462 49.1923C37.2111 50.2265 37.9761 51.1394 38.8971 51.8784H9.22978C7.52808 51.8758 5.88374 51.2663 4.59533 50.1605C3.30693 49.0548 2.45991 47.5261 2.20807 45.8522H35.6056Z" fill="#555555"/>
<path d="M27.7165 31.5219L27.7794 30.3853C27.7906 30.1819 27.7421 29.9797 27.6396 29.8033C27.5372 29.627 27.3853 29.4841 27.2025 29.3923L26.1856 28.8814L25.6719 27.8699C25.5795 27.6881 25.4359 27.5371 25.2586 27.4352C25.0813 27.3332 24.878 27.2849 24.6736 27.296L23.5308 27.3584L22.5772 26.7332C22.405 26.6202 22.2034 26.5601 21.9972 26.5601C21.7909 26.5601 21.5893 26.6202 21.4171 26.7332L20.4636 27.3584L19.3209 27.296C19.1164 27.2849 18.9131 27.3333 18.7359 27.4352C18.5586 27.5371 18.415 27.6882 18.3225 27.8699L17.8089 28.8814L16.792 29.3923C16.6092 29.4841 16.4572 29.627 16.3548 29.8033C16.2523 29.9797 16.2037 30.1819 16.2149 30.3853L16.2779 31.5219L15.6491 32.4705C15.5356 32.6417 15.4751 32.8423 15.4751 33.0474C15.4751 33.2525 15.5356 33.453 15.6491 33.6243L16.2779 34.5727L16.2149 35.7095C16.2037 35.9128 16.2523 36.1151 16.3548 36.2914C16.4572 36.4678 16.6092 36.6106 16.792 36.7025L17.8089 37.2134L18.3225 38.2249C18.4149 38.4067 18.5585 38.5578 18.7358 38.6598C18.9131 38.7617 19.1165 38.81 19.321 38.7988L20.4637 38.7362L21.4171 39.3616C21.5893 39.4745 21.7909 39.5347 21.9972 39.5347C22.2034 39.5347 22.405 39.4745 22.5772 39.3616L23.5308 38.7362L24.6734 38.7988C24.878 38.8103 25.0815 38.7621 25.2589 38.6602C25.4362 38.5582 25.5798 38.4069 25.6719 38.2249L26.1856 37.2134L27.2025 36.7025C27.3853 36.6106 27.5372 36.4677 27.6396 36.2914C27.7421 36.115 27.7907 35.9127 27.7794 35.7093L27.7165 34.5727L28.3453 33.6243C28.4588 33.453 28.5193 33.2524 28.5193 33.0473C28.5193 32.8422 28.4588 32.6416 28.3453 32.4704L27.7165 31.5219ZM25.7657 33.7077C25.6414 33.8954 25.5809 34.1179 25.5933 34.3423L25.6374 35.1402L24.9262 35.4976C24.7254 35.5986 24.5623 35.7608 24.4609 35.9606L24.102 36.6684L23.2996 36.6245C23.074 36.6121 22.8503 36.6722 22.6618 36.796L21.9976 37.2315L21.3336 36.796C21.1616 36.6832 20.9601 36.623 20.7541 36.623C20.7347 36.623 20.7155 36.623 20.6962 36.6245L19.8938 36.6684L19.5345 35.961C19.4331 35.7612 19.27 35.599 19.0692 35.498L18.358 35.1406L18.4021 34.3427C18.4145 34.1183 18.354 33.8959 18.2297 33.7082L17.7917 33.0476L18.2297 32.3871C18.354 32.1994 18.4145 31.977 18.4021 31.7526L18.358 30.9545L19.0692 30.5971C19.27 30.4963 19.4331 30.3341 19.5345 30.1343L19.8938 29.4269L20.6962 29.4708C20.9218 29.4831 21.1455 29.4229 21.3341 29.2991L21.9981 28.8637L22.6623 29.2991C22.8508 29.423 23.0745 29.4832 23.3001 29.4708L24.1025 29.4269L24.4618 30.1343C24.5632 30.3341 24.7263 30.4963 24.9271 30.5971L25.6383 30.9545L25.5942 31.7526C25.5818 31.977 25.6422 32.1994 25.7666 32.3871L26.2044 33.0476L25.7657 33.7077Z" fill="#555555"/>
<path d="M16.4638 11.7253C16.4717 11.7253 16.4798 11.7253 16.4879 11.7253L28.2099 11.4633C28.3482 11.4602 28.4846 11.43 28.6113 11.3745C28.7379 11.319 28.8523 11.2392 28.948 11.1396C29.0436 11.0401 29.1186 10.9229 29.1687 10.7945C29.2188 10.6662 29.2429 10.5293 29.2398 10.3917C29.2367 10.254 29.2064 10.1184 29.1505 9.99239C29.0947 9.86642 29.0145 9.75263 28.9144 9.6575C28.8144 9.56237 28.6965 9.48777 28.5675 9.43796C28.4385 9.38815 28.3008 9.36411 28.1625 9.36721L16.4405 9.62922C16.1611 9.63229 15.8943 9.74566 15.6989 9.94438C15.5035 10.1431 15.3954 10.4109 15.3985 10.6888C15.4016 10.9668 15.5156 11.2322 15.7154 11.4265C15.9151 11.6209 16.1844 11.7284 16.4638 11.7253ZM16.4638 15.7209H46.6248C46.9042 15.7209 47.1722 15.6105 47.3698 15.414C47.5674 15.2174 47.6785 14.9509 47.6785 14.6729C47.6785 14.3949 47.5674 14.1284 47.3698 13.9318C47.1722 13.7353 46.9042 13.6249 46.6248 13.6249H16.4638C16.1844 13.6249 15.9164 13.7353 15.7188 13.9318C15.5212 14.1284 15.4102 14.3949 15.4102 14.6729C15.4102 14.9509 15.5212 15.2174 15.7188 15.414C15.9164 15.6105 16.1844 15.7209 16.4638 15.7209ZM16.4638 19.9131H46.6248C46.9042 19.9131 47.1722 19.8027 47.3698 19.6061C47.5674 19.4096 47.6785 19.143 47.6785 18.865C47.6785 18.5871 47.5674 18.3205 47.3698 18.124C47.1722 17.9274 46.9042 17.817 46.6248 17.817H16.4638C16.1844 17.817 15.9164 17.9274 15.7188 18.124C15.5212 18.3205 15.4102 18.5871 15.4102 18.865C15.4102 19.143 15.5212 19.4096 15.7188 19.6061C15.9164 19.8027 16.1844 19.9131 16.4638 19.9131ZM16.4638 24.1052H46.6248C46.9042 24.1052 47.1722 23.9948 47.3698 23.7983C47.5674 23.6017 47.6785 23.3351 47.6785 23.0572C47.6785 22.7792 47.5674 22.5127 47.3698 22.3161C47.1722 22.1196 46.9042 22.0091 46.6248 22.0091H16.4638C16.1844 22.0091 15.9164 22.1196 15.7188 22.3161C15.5212 22.5127 15.4102 22.7792 15.4102 23.0572C15.4102 23.3351 15.5212 23.6017 15.7188 23.7983C15.9164 23.9948 16.1844 24.1052 16.4638 24.1052ZM46.2297 37.5987C46.2297 37.3207 46.1187 37.0542 45.9211 36.8576C45.7235 36.6611 45.4555 36.5507 45.176 36.5507H31.3467C31.0673 36.5507 30.7993 36.6611 30.6017 36.8576C30.4041 37.0542 30.2931 37.3207 30.2931 37.5987C30.2931 37.8767 30.4041 38.1432 30.6017 38.3398C30.7993 38.5363 31.0673 38.6467 31.3467 38.6467H45.176C45.4555 38.6467 45.7235 38.5363 45.9211 38.3398C46.1187 38.1432 46.2297 37.8767 46.2297 37.5987ZM39.8786 33.1745L38.3807 32.1727L36.9319 31.2218C36.7214 31.0836 36.468 31.0251 36.2178 31.057C35.9676 31.0888 35.7372 31.2089 35.5685 31.3954C34.9504 32.0784 34.2019 32.8554 33.6951 33.3331C33.6175 33.2056 33.5401 33.0676 33.4746 32.9378C33.3496 32.6892 33.1305 32.5001 32.8653 32.4122C32.6002 32.3243 32.3108 32.3448 32.0609 32.4691C31.8109 32.5934 31.6208 32.8114 31.5324 33.0751C31.4441 33.3388 31.4646 33.6266 31.5896 33.8753C32.5395 35.7646 33.2996 35.7646 33.5858 35.7646C33.9761 35.7646 34.3786 35.7646 36.5228 33.4646L37.2125 33.9172L38.9247 35.0623C39.0701 35.1596 39.2376 35.2192 39.412 35.2359L42.1778 35.4979C42.456 35.5243 42.7333 35.4396 42.9488 35.2626C43.1643 35.0856 43.3002 34.8307 43.3267 34.554C43.3532 34.2773 43.2681 34.0015 43.0902 33.7872C42.9122 33.5728 42.656 33.4376 42.3778 33.4113L39.8786 33.1745Z" fill="#555555"/>
</svg>
