<svg width="52" height="52" viewBox="0 0 52 52" fill="none" xmlns="http://www.w3.org/2000/svg">
<path d="M26.0392 51.5893L0.890765 22.6593L4.11696 0.80811L26.2045 0.654407L51.3529 29.5844L26.0392 51.5893ZM13.1931 16.7267C14.5377 16.8207 15.8646 16.3768 16.8819 15.4925C17.8991 14.6082 18.5234 13.356 18.6175 12.0114C18.7115 10.6668 18.2675 9.33987 17.3832 8.3226C16.4989 7.30534 15.2468 6.68102 13.9021 6.587C12.5575 6.49297 11.2306 6.93694 10.2134 7.82124C9.19612 8.70554 8.5718 9.95772 8.47777 11.3023C8.38375 12.6469 8.82772 13.9738 9.71202 14.9911C10.5963 16.0084 11.8485 16.6327 13.1931 16.7267Z" fill="#555555"/>
</svg>
