<svg width="56" height="54" viewBox="0 0 56 54" fill="none" xmlns="http://www.w3.org/2000/svg">
<path fill-rule="evenodd" clip-rule="evenodd" d="M48.9694 47.25C48.7945 49.5788 44.5272 50.625 41.9738 50.625H19.8326L13.9913 47.25V27C18.7483 27 21.3716 24.4688 24.9394 20.655C29.2417 16.065 28.9269 12.015 28.0175 6.71625C27.7377 5.02875 29.7664 3.34125 31.5153 3.34125C34.4185 3.34125 38.5109 12.555 38.5109 16.8412L38.441 20.3175C38.441 22.6462 39.5953 23.5912 42.0087 23.5912H49.0044C51.208 23.5912 52.4322 24.8062 52.5022 26.9662L49.0044 47.2162L48.9694 47.25ZM48.9694 20.25H41.9038L41.9738 16.9425C41.9738 12.555 37.8813 0 31.4803 0C29.4516 0 27.3879 1.0125 26.0237 2.59875C24.7645 3.9825 24.2748 5.67 24.5547 7.3575C25.4291 12.3525 25.534 15.0525 22.351 18.4275C18.8532 22.1063 17.1743 23.6588 13.9913 23.6588H6.99563C3.28795 23.625 0 26.7975 0 30.375V43.875C0 47.4525 3.28795 50.625 6.99563 50.625H13.0119L18.0487 53.5275C18.6084 53.8312 19.203 54 19.8676 54H42.0087C45.9613 54 51.9425 52.3125 52.5022 47.655L55.93 27.5737C56 27.3038 56 27.1012 56 26.8987C55.8951 22.95 53.0618 20.25 49.0044 20.25H48.9694Z" fill="#555555"/>
</svg>
